# xmcd
#
# Track frame offsets: 
#        150
#        18748
#        72146
#        84894
#        107132
#        124034
#        140039
#        151882
#        183055
#        201935
#
# Disc length: 3111 seconds
#
# Revision: 0
# Processed by: cddbd v1.5.2PL0 Copyright (c) Steve Scherf et al.
# Submitted via: ExactAudioCopyFreeDBPlugin 1.0
#
DISCID=810c250a
DTITLE=Robbie Laws - Live
DYEAR=2005
DGENRE=Blues
TTITLE0=T-Bone Boogie
TTITLE1=Sweet Little Angel
TTITLE2=36-22-36
TTITLE3=Hot Little Mama
TTITLE4=Shout About It
TTITLE5=Swamp Thang
TTITLE6=Okie Dokie Stomp
TTITLE7=I Smell Trouble
TTITLE8=Bad Case of the Blues
TTITLE9=Caledonia
EXTD=
EXTT0=
EXTT1=
EXTT2=
EXTT3=
EXTT4=
EXTT5=
EXTT6=
EXTT7=
EXTT8=
EXTT9=
PLAYORDER=
